<svg xmlns="http://www.w3.org/2000/svg" width="1024" height="1024" viewBox="0 0 1024 1024">
<g>
<path d="M 589.97 662.62 C583.57,664.00 570.88,664.30 501.27,664.71 L 420.05 665.19 L 419.50 594.00 L 465.94 594.00 L 466.50 620.50 L 579.50 620.50 L 586.83 618.10 C601.64,613.25 613.44,602.79 619.97,588.73 C626.12,575.47 627.45,564.52 624.56,550.88 C621.27,535.36 609.44,519.74 596.00,513.16 C583.32,506.96 580.55,506.74 520.00,507.14 L 465.50 507.50 L 465.23 486.25 L 464.96 465.00 L 513.73 464.98 C552.19,464.97 563.93,464.66 569.26,463.53 C593.01,458.50 611.00,435.97 611.00,411.24 C611.00,386.55 593.41,363.74 570.76,359.06 C567.27,358.34 548.65,358.06 515.50,358.24 L 465.50 358.50 L 465.30 391.50 L 419.50 391.50 L 419.00 353.35 L 418.50 315.21 L 440.50 314.52 C452.60,314.14 487.92,314.00 519.00,314.20 L 575.50 314.57 L 585.12 317.19 C620.25,326.78 645.80,352.08 654.20,385.62 C657.41,398.43 657.39,420.90 654.15,432.89 C649.82,448.93 641.24,462.91 628.31,474.99 C621.19,481.64 620.67,482.38 622.41,483.39 C643.55,495.65 656.60,509.41 664.68,528.00 L 667.95 535.50 L 738.08 535.50 L 738.02 492.75 L 737.96 450.00 L 780.00 450.00 L 780.00 536.00 L 867.04 536.00 L 866.77 556.75 L 866.50 577.50 L 823.21 577.76 L 779.93 578.02 L 780.00 620.26 C780.04,643.49 780.06,663.06 780.04,663.75 C780.01,664.71 775.21,665.00 759.50,665.00 L 739.00 665.00 L 739.00 578.00 L 671.00 578.00 L 671.00 580.31 C671.00,584.46 666.93,598.28 663.57,605.56 C649.78,635.41 624.17,655.26 589.97,662.62 ZM 250.01 507.00 L 249.50 664.50 L 226.73 664.77 C209.01,664.98 203.86,664.76 203.56,663.77 C203.34,663.07 202.92,584.31 202.61,488.75 L 202.06 315.00 L 248.99 315.00 L 249.24 388.75 L 249.50 462.50 L 419.00 463.01 L 419.00 507.00 Z" fill="rgb(1,1,1)"/>
<path d="M 0.00 512.00 L 0.00 0.00 L 512.00 0.00 L 1024.00 0.00 L 1024.00 512.00 L 1024.00 1024.00 L 512.00 1024.00 L 0.00 1024.00 L 0.00 512.00 ZM 249.76 585.75 L 250.01 507.00 L 334.51 507.00 L 419.00 507.00 L 419.00 485.01 L 419.00 463.01 L 334.25 462.76 L 249.50 462.50 L 249.24 388.75 L 248.99 315.00 L 225.52 315.00 L 202.06 315.00 L 202.61 488.75 C202.92,584.31 203.34,663.07 203.56,663.77 C203.86,664.76 209.01,664.98 226.73,664.77 L 249.50 664.50 L 249.76 585.75 ZM 589.97 662.62 C624.17,655.26 649.78,635.41 663.57,605.56 C666.93,598.28 671.00,584.46 671.00,580.31 L 671.00 578.00 L 705.00 578.00 L 739.00 578.00 L 739.00 621.50 L 739.00 665.00 L 759.50 665.00 C775.21,665.00 780.01,664.71 780.04,663.75 C780.06,663.06 780.04,643.49 780.00,620.26 L 779.93 578.02 L 823.21 577.76 L 866.50 577.50 L 866.77 556.75 L 867.04 536.00 L 823.52 536.00 L 780.00 536.00 L 780.00 493.00 L 780.00 450.00 L 758.98 450.00 L 737.96 450.00 L 738.02 492.75 L 738.08 535.50 L 703.02 535.50 L 667.95 535.50 L 664.68 528.00 C656.60,509.41 643.55,495.65 622.41,483.39 C620.67,482.38 621.19,481.64 628.31,474.99 C641.24,462.91 649.82,448.93 654.15,432.89 C657.39,420.90 657.41,398.43 654.20,385.62 C645.80,352.08 620.25,326.78 585.12,317.19 L 575.50 314.57 L 519.00 314.20 C487.92,314.00 452.60,314.14 440.50,314.52 L 418.50 315.21 L 419.00 353.35 L 419.50 391.50 L 442.40 391.50 L 465.30 391.50 L 465.40 375.00 L 465.50 358.50 L 515.50 358.24 C548.65,358.06 567.27,358.34 570.76,359.06 C593.41,363.74 611.00,386.55 611.00,411.24 C611.00,435.97 593.01,458.50 569.26,463.53 C563.93,464.66 552.19,464.97 513.73,464.98 L 464.96 465.00 L 465.23 486.25 L 465.50 507.50 L 520.00 507.14 C580.55,506.74 583.32,506.96 596.00,513.16 C609.44,519.74 621.27,535.36 624.56,550.88 C627.45,564.52 626.12,575.47 619.97,588.73 C613.44,602.79 601.64,613.25 586.83,618.10 L 579.50 620.50 L 523.00 620.50 L 466.50 620.50 L 466.22 607.25 L 465.94 594.00 L 442.72 594.00 L 419.50 594.00 L 419.77 629.59 L 420.05 665.19 L 501.27 664.71 C570.88,664.30 583.57,664.00 589.97,662.62 Z" fill="rgb(254,254,254)"/>
</g>
</svg>